<svg width="93" height="100" viewBox="0 0 93 100" fill="none" xmlns="http://www.w3.org/2000/svg">
<path d="M47 0.506449V0.5H46.5C21.1001 0.5 0.5 22.7399 0.5 49.9964C0.5 57.4747 2.01279 64.6645 4.99941 71.3647C4.99965 71.3652 4.9999 71.3658 5.00014 71.3663L5.13814 71.6813L5.35223 72.1698L5.82595 71.9246L8.65457 70.4604L9.07443 70.2431L8.88091 69.8117L8.73886 69.4951C8.7387 69.4948 8.73855 69.4944 8.73839 69.4941C6.01885 63.3889 4.64033 56.8271 4.64033 49.9964C4.64033 25.0853 23.4519 4.8819 46.5 4.8819C69.5481 4.8819 88.3597 25.0853 88.3597 49.9964C88.3597 74.9076 69.5481 95.1145 46.5 95.1145C42.0419 95.1145 37.7021 94.114 35.5562 93.5306V20.3557V19.8557H35.0562H31.9159H31.4158L31.4159 20.3558L31.4225 96.4502L31.4225 96.8121L31.7663 96.9251L32.8723 97.2889C33.5645 97.5191 39.7635 99.5 46.5 99.5C71.8999 99.5 92.5 77.2601 92.5 50C92.5 22.919 72.1696 0.795974 47 0.506449Z" fill="#EFEFEF" stroke="#EFEFEF"/>
</svg>
