<svg width="56" height="53" viewBox="0 0 56 53" fill="none" xmlns="http://www.w3.org/2000/svg">
<path d="M27.8688 36.7603C34.2184 36.7603 39.366 31.9717 39.366 26.0649C39.366 20.1579 34.2184 15.3694 27.8688 15.3694C21.519 15.3694 16.3716 20.1579 16.3716 26.0649C16.3716 31.9717 21.519 36.7603 27.8688 36.7603Z" stroke="#196572" stroke-width="4" stroke-linecap="round" stroke-linejoin="round"/>
<path d="M2 36.7603V15.3694C2 7.98567 8.43438 2 16.3716 2H39.3661C47.3032 2 53.7376 7.98567 53.7376 15.3694V36.7603C53.7376 44.1439 47.3032 50.1297 39.3661 50.1297H16.3716C8.43438 50.1297 2 44.1439 2 36.7603Z" stroke="#196572" stroke-width="4"/>
<path d="M43.6775 11.3854L43.7063 11.3557" stroke="#196572" stroke-width="4" stroke-linecap="round" stroke-linejoin="round"/>
</svg>
