<svg width="76" height="52" viewBox="0 0 76 52" fill="none" xmlns="http://www.w3.org/2000/svg">
<path d="M44.8519 25.5863L32.3535 32.2303V18.9424L44.8519 25.5863Z" stroke="#196572" stroke-width="4" stroke-linecap="round" stroke-linejoin="round"/>
<path d="M2 27.9366V23.2357C2 13.6174 2 8.80834 5.2335 5.71403C8.46704 2.61971 13.5577 2.48577 23.7391 2.21789C28.5637 2.09096 33.4919 2 37.71 2C41.928 2 46.8563 2.09096 51.6808 2.21789C61.862 2.48577 66.9528 2.61971 70.1864 5.71403C73.4199 8.80834 73.4199 13.6174 73.4199 23.2357V27.9366C73.4199 37.5547 73.4199 42.3639 70.1864 45.458C66.9528 48.5524 61.8624 48.6863 51.6811 48.9544C46.8563 49.0813 41.928 49.1723 37.71 49.1723C33.4919 49.1723 28.5635 49.0813 23.7388 48.9544C13.5576 48.6863 8.46697 48.5524 5.23346 45.458C2 42.3639 2 37.5547 2 27.9366Z" stroke="#196572" stroke-width="4"/>
</svg>
